<?xml version="1.0" standalone="no"?>
<!DOCTYPE svg PUBLIC "-//W3C//DTD SVG 20010904//EN"
 "http://www.w3.org/TR/2001/REC-SVG-20010904/DTD/svg10.dtd">
<svg version="1.0" xmlns="http://www.w3.org/2000/svg"
 width="512.000000pt" height="512.000000pt" viewBox="0 0 512.000000 512.000000"
 preserveAspectRatio="xMidYMid meet">
<metadata>
Created by potrace 1.11, written by Peter Selinger 2001-2013
</metadata>
<g transform="translate(0.000000,512.000000) scale(0.100000,-0.100000)"
fill="#000000" stroke="none">
<path d="M2497 4745 c-21 -7 -37 -11 -37 -9 0 3 -11 -3 -25 -12 -13 -8 -30
-12 -37 -8 -7 4 -10 4 -6 -1 9 -9 -45 -45 -68 -45 -8 0 -13 -4 -10 -9 3 -5 -5
-12 -19 -15 -14 -4 -25 -11 -25 -17 0 -6 -4 -8 -8 -5 -5 3 -18 -2 -28 -12 -11
-9 -26 -18 -34 -20 -8 -2 -20 -8 -25 -15 -6 -7 -17 -13 -25 -15 -8 -2 -16 -8
-18 -13 -2 -5 -8 -9 -13 -9 -6 0 -46 -21 -89 -46 -44 -25 -82 -45 -85 -44 -3
0 -15 -9 -27 -19 -11 -11 -25 -18 -30 -15 -4 3 -8 0 -8 -6 0 -6 -4 -8 -10 -5
-5 3 -10 2 -10 -3 0 -5 -12 -15 -27 -22 -16 -8 -39 -23 -52 -35 -13 -11 -21
-15 -17 -8 4 7 -11 1 -33 -14 -22 -14 -43 -26 -48 -26 -4 0 -13 -7 -20 -16 -7
-9 -13 -12 -13 -8 0 5 -7 1 -16 -7 -8 -9 -20 -14 -25 -11 -5 4 -9 1 -9 -4 0
-6 -6 -11 -14 -11 -8 0 -17 -7 -20 -16 -3 -8 -10 -12 -16 -9 -5 3 -10 1 -10
-5 0 -6 -4 -8 -10 -5 -5 3 -10 1 -10 -6 0 -7 -3 -9 -7 -6 -3 4 -17 -3 -30 -15
-13 -12 -23 -18 -23 -15 0 4 -11 0 -25 -9 -14 -9 -22 -21 -18 -28 4 -6 -1 -5
-10 3 -9 7 -17 10 -17 5 0 -5 -12 -18 -27 -28 -17 -13 -24 -14 -19 -5 6 11 4
10 -6 -1 -7 -8 -26 -22 -43 -30 -16 -8 -36 -21 -43 -27 -7 -7 -18 -13 -24 -13
-5 0 -23 -9 -39 -21 -16 -11 -29 -18 -29 -15 0 3 -9 -3 -20 -14 -11 -11 -27
-20 -35 -20 -8 0 -15 -5 -15 -11 0 -6 -9 -9 -20 -6 -11 3 -18 2 -15 -2 2 -5
-7 -13 -20 -19 -14 -7 -25 -16 -25 -22 0 -6 -4 -9 -8 -6 -5 3 -25 -6 -44 -19
-20 -13 -38 -21 -42 -18 -3 4 -6 2 -6 -4 0 -10 -49 -38 -63 -35 -4 1 -10 -5
-13 -13 -4 -8 -12 -15 -19 -15 -8 0 -20 -7 -29 -15 -8 -9 -19 -17 -23 -18 -4
-1 -7 -6 -5 -10 1 -5 -2 -6 -7 -3 -10 7 -102 -79 -99 -91 1 -5 -4 -19 -12 -33
-13 -21 -15 -169 -15 -1050 0 -564 3 -1034 7 -1045 17 -53 29 -75 39 -75 7 0
10 -3 6 -6 -8 -8 34 -54 45 -48 4 3 8 -3 8 -12 0 -10 3 -15 6 -11 4 3 12 1 20
-6 33 -30 42 -35 48 -30 3 4 6 0 6 -7 0 -7 3 -11 6 -7 4 3 13 -1 21 -9 8 -8
19 -12 24 -9 5 4 9 2 9 -2 0 -9 45 -39 65 -44 6 -1 16 -9 23 -18 10 -12 12
-13 6 -1 -4 8 4 5 18 -7 13 -13 31 -23 40 -23 9 0 18 -3 20 -7 5 -12 66 -53
78 -53 5 0 10 -4 10 -10 0 -5 5 -10 11 -10 5 0 7 6 3 13 -4 6 7 -1 24 -17 18
-17 32 -26 32 -20 0 5 4 5 8 -1 11 -15 50 -35 69 -35 15 0 16 -2 3 -10 -12 -8
-11 -10 8 -10 12 0 22 -4 22 -9 0 -8 37 -24 53 -22 4 1 7 -2 7 -7 0 -4 17 -16
38 -27 20 -11 43 -26 50 -33 8 -7 18 -10 23 -7 5 4 9 1 9 -4 0 -6 7 -11 15
-11 9 0 18 -7 22 -16 3 -8 11 -13 19 -10 7 3 18 -2 25 -10 6 -8 28 -22 48 -31
20 -10 42 -23 49 -30 7 -7 24 -16 38 -19 13 -3 24 -10 24 -15 0 -5 9 -9 21 -9
11 0 18 -4 15 -8 -3 -5 10 -15 29 -22 19 -8 35 -18 35 -22 0 -5 5 -6 10 -3 6
3 10 2 10 -4 0 -6 11 -13 25 -17 14 -3 25 -10 25 -16 0 -5 4 -7 9 -4 5 3 14
-1 21 -9 7 -8 19 -15 26 -15 8 0 14 -4 14 -9 0 -8 37 -24 53 -22 4 1 7 -6 7
-14 0 -9 6 -12 15 -9 8 4 15 1 15 -5 0 -6 7 -11 15 -11 8 0 15 -5 15 -11 0 -6
6 -9 13 -6 14 5 39 -18 29 -28 -4 -4 -2 -5 3 -4 15 4 55 -11 55 -22 0 -5 3 -9
8 -8 15 2 52 -14 52 -22 0 -5 7 -9 15 -9 9 0 18 -7 21 -15 4 -8 10 -13 14 -10
4 3 18 -4 31 -14 13 -10 29 -20 34 -21 22 -6 55 -24 55 -29 0 -4 10 -7 22 -8
11 -1 24 -6 27 -10 15 -20 132 -23 155 -4 11 9 16 10 12 4 -4 -7 -2 -13 3 -13
6 0 11 5 11 10 0 6 8 10 18 10 11 0 29 9 42 20 13 12 29 19 35 16 6 -2 17 5
23 15 7 10 21 19 32 19 11 0 20 4 20 10 0 5 3 9 8 8 14 -3 42 14 36 23 -3 5 2
6 10 3 9 -3 16 -1 16 4 0 10 25 22 43 21 5 0 15 8 23 18 7 10 14 14 14 10 0
-4 6 -3 13 3 30 25 89 60 102 60 8 0 15 4 15 9 0 5 10 13 23 17 12 4 25 11 28
16 3 5 15 10 27 11 11 0 20 4 19 7 -1 3 2 6 6 7 4 1 19 11 34 22 14 12 30 18
36 14 6 -4 8 0 4 10 -4 11 -1 15 12 12 10 -2 24 5 32 16 15 21 35 27 23 6 -5
-8 -3 -8 9 2 9 7 14 17 11 22 -3 5 -2 9 3 8 13 -3 63 13 63 20 0 3 9 12 21 19
17 11 20 11 15 0 -4 -7 1 -3 10 10 9 12 24 22 33 22 22 1 52 25 43 35 -4 5 -2
5 5 2 12 -8 73 23 73 36 0 5 5 5 10 2 6 -3 10 -1 10 5 0 6 5 8 10 5 6 -3 10
-1 10 5 0 6 5 8 10 5 6 -3 10 -2 10 4 0 6 11 13 25 17 14 3 25 10 25 14 0 9
40 25 53 22 4 -1 7 3 7 8 0 11 49 35 63 31 5 -1 6 3 3 8 -7 11 22 23 36 14 6
-3 8 -2 5 4 -3 5 15 20 41 34 26 13 53 31 60 39 8 8 11 9 7 2 -4 -7 13 1 37
17 23 16 46 27 49 25 4 -2 10 3 13 12 3 8 10 13 15 10 5 -3 11 1 15 9 3 8 15
15 26 15 11 0 20 5 20 11 0 5 5 7 10 4 6 -3 10 -2 10 3 0 6 14 15 30 21 17 5
30 15 30 21 0 6 5 8 10 5 6 -3 10 -2 10 3 0 9 37 25 53 23 4 -1 7 6 7 15 0 9
5 14 11 12 14 -5 89 63 89 79 0 6 4 13 9 15 5 2 16 28 25 58 14 48 16 160 14
1066 -2 787 -6 1014 -15 1026 -7 8 -11 17 -8 20 3 3 -6 17 -19 31 -15 16 -20
28 -13 31 8 3 8 5 -1 5 -19 1 -43 27 -34 36 4 5 2 5 -4 2 -6 -4 -24 5 -38 18
-15 14 -33 25 -41 25 -8 0 -19 8 -24 18 -6 9 -11 12 -11 5 0 -7 -12 -1 -26 12
-15 14 -30 22 -35 20 -4 -3 -12 2 -17 10 -7 14 -23 21 -54 24 -5 1 -8 7 -8 15
0 8 -8 13 -17 12 -9 -2 -25 6 -35 16 -10 10 -25 18 -33 18 -8 0 -15 5 -15 10
0 6 -6 10 -14 10 -7 0 -19 7 -26 15 -7 8 -16 12 -21 9 -5 -3 -9 0 -9 5 0 6 -6
11 -14 11 -7 0 -19 7 -26 15 -7 9 -18 14 -25 11 -6 -2 -17 5 -23 15 -7 10 -18
19 -26 19 -7 0 -25 9 -40 21 -14 11 -26 17 -26 13 0 -4 -8 0 -18 9 -10 10 -22
14 -25 10 -4 -3 -7 -1 -7 5 0 7 -18 19 -40 28 -22 9 -40 20 -40 25 0 5 -5 9
-11 9 -6 0 -24 9 -40 21 -16 11 -38 21 -49 22 -11 1 -20 7 -20 15 0 7 -4 10
-10 7 -5 -3 -10 -2 -10 4 0 9 -40 27 -48 22 -2 -1 -12 7 -22 19 -10 12 -20 21
-22 20 -7 -3 -44 15 -56 27 -8 7 -17 11 -22 8 -4 -3 -11 2 -14 11 -3 8 -10 12
-16 9 -5 -3 -10 -1 -10 4 0 6 -7 11 -15 11 -8 0 -15 5 -15 11 0 5 -4 7 -10 4
-5 -3 -10 -1 -10 5 0 6 -4 8 -10 5 -5 -3 -10 -1 -10 4 0 6 -7 11 -16 11 -9 0
-12 5 -8 12 4 6 3 8 -4 4 -6 -3 -17 0 -25 8 -8 8 -17 12 -21 9 -3 -4 -6 0 -6
7 0 7 -3 11 -6 7 -4 -3 -25 6 -48 22 -22 16 -51 31 -63 35 -13 4 -23 12 -23
17 0 6 -4 7 -10 4 -5 -3 -10 -1 -10 4 0 6 -9 11 -21 11 -11 0 -17 5 -14 10 3
6 0 10 -9 10 -8 0 -17 6 -19 13 -4 9 -6 9 -6 -1 -1 -8 -11 -3 -28 12 -15 14
-30 23 -35 20 -4 -3 -8 0 -8 5 0 6 -7 11 -15 11 -8 0 -15 5 -15 10 0 6 -9 10
-21 10 -11 0 -17 5 -14 10 3 6 -3 10 -14 10 -12 0 -21 5 -21 10 0 6 -9 10 -19
10 -11 0 -21 5 -23 10 -2 6 -13 12 -25 13 -12 0 -19 5 -17 9 3 4 0 9 -5 9 -15
2 -31 6 -33 9 -2 1 -12 4 -23 6 -57 11 -95 10 -128 -1z"/>
</g>
</svg>
